<svg width="158" height="57" viewBox="0 0 158 57" fill="none" xmlns="http://www.w3.org/2000/svg">
<g id="Logo">
<g id="Group 19">
<g id="logo_txt">
<path id="FreeBees" d="M69.3906 34.4648H62.2305V42H59.9805V24.9375H70.5508V26.7891H62.2305V32.625H69.3906V34.4648ZM78.7305 31.2656C78.4023 31.2109 78.0469 31.1836 77.6641 31.1836C76.2422 31.1836 75.2773 31.7891 74.7695 33V42H72.6016V29.3203H74.7109L74.7461 30.7852C75.457 29.6523 76.4648 29.0859 77.7695 29.0859C78.1914 29.0859 78.5117 29.1406 78.7305 29.25V31.2656ZM85.7617 42.2344C84.043 42.2344 82.6445 41.6719 81.5664 40.5469C80.4883 39.4141 79.9492 37.9023 79.9492 36.0117V35.6133C79.9492 34.3555 80.1875 33.2344 80.6641 32.25C81.1484 31.2578 81.8203 30.4844 82.6797 29.9297C83.5469 29.3672 84.4844 29.0859 85.4922 29.0859C87.1406 29.0859 88.4219 29.6289 89.3359 30.7148C90.25 31.8008 90.707 33.3555 90.707 35.3789V36.2812H82.1172C82.1484 37.5312 82.5117 38.543 83.207 39.3164C83.9102 40.082 84.8008 40.4648 85.8789 40.4648C86.6445 40.4648 87.293 40.3086 87.8242 39.9961C88.3555 39.6836 88.8203 39.2695 89.2188 38.7539L90.543 39.7852C89.4805 41.418 87.8867 42.2344 85.7617 42.2344ZM85.4922 30.8672C84.6172 30.8672 83.8828 31.1875 83.2891 31.8281C82.6953 32.4609 82.3281 33.3516 82.1875 34.5H88.5391V34.3359C88.4766 33.2344 88.1797 32.3828 87.6484 31.7812C87.1172 31.1719 86.3984 30.8672 85.4922 30.8672ZM98.4883 42.2344C96.7695 42.2344 95.3711 41.6719 94.293 40.5469C93.2148 39.4141 92.6758 37.9023 92.6758 36.0117V35.6133C92.6758 34.3555 92.9141 33.2344 93.3906 32.25C93.875 31.2578 94.5469 30.4844 95.4062 29.9297C96.2734 29.3672 97.2109 29.0859 98.2188 29.0859C99.8672 29.0859 101.148 29.6289 102.062 30.7148C102.977 31.8008 103.434 33.3555 103.434 35.3789V36.2812H94.8438C94.875 37.5312 95.2383 38.543 95.9336 39.3164C96.6367 40.082 97.5273 40.4648 98.6055 40.4648C99.3711 40.4648 100.02 40.3086 100.551 39.9961C101.082 39.6836 101.547 39.2695 101.945 38.7539L103.27 39.7852C102.207 41.418 100.613 42.2344 98.4883 42.2344ZM98.2188 30.8672C97.3438 30.8672 96.6094 31.1875 96.0156 31.8281C95.4219 32.4609 95.0547 33.3516 94.9141 34.5H101.266V34.3359C101.203 33.2344 100.906 32.3828 100.375 31.7812C99.8438 31.1719 99.125 30.8672 98.2188 30.8672ZM106.293 42V24.9375H111.871C113.723 24.9375 115.113 25.3203 116.043 26.0859C116.98 26.8516 117.449 27.9844 117.449 29.4844C117.449 30.2812 117.223 30.9883 116.77 31.6055C116.316 32.2148 115.699 32.6875 114.918 33.0234C115.84 33.2812 116.566 33.7734 117.098 34.5C117.637 35.2188 117.906 36.0781 117.906 37.0781C117.906 38.6094 117.41 39.8125 116.418 40.6875C115.426 41.5625 114.023 42 112.211 42H106.293ZM108.543 34.0195V40.1602H112.258C113.305 40.1602 114.129 39.8906 114.73 39.3516C115.34 38.8047 115.645 38.0547 115.645 37.1016C115.645 35.0469 114.527 34.0195 112.293 34.0195H108.543ZM108.543 32.2148H111.941C112.926 32.2148 113.711 31.9688 114.297 31.4766C114.891 30.9844 115.188 30.3164 115.188 29.4727C115.188 28.5352 114.914 27.8555 114.367 27.4336C113.82 27.0039 112.988 26.7891 111.871 26.7891H108.543V32.2148ZM126.168 42.2344C124.449 42.2344 123.051 41.6719 121.973 40.5469C120.895 39.4141 120.355 37.9023 120.355 36.0117V35.6133C120.355 34.3555 120.594 33.2344 121.07 32.25C121.555 31.2578 122.227 30.4844 123.086 29.9297C123.953 29.3672 124.891 29.0859 125.898 29.0859C127.547 29.0859 128.828 29.6289 129.742 30.7148C130.656 31.8008 131.113 33.3555 131.113 35.3789V36.2812H122.523C122.555 37.5312 122.918 38.543 123.613 39.3164C124.316 40.082 125.207 40.4648 126.285 40.4648C127.051 40.4648 127.699 40.3086 128.23 39.9961C128.762 39.6836 129.227 39.2695 129.625 38.7539L130.949 39.7852C129.887 41.418 128.293 42.2344 126.168 42.2344ZM125.898 30.8672C125.023 30.8672 124.289 31.1875 123.695 31.8281C123.102 32.4609 122.734 33.3516 122.594 34.5H128.945V34.3359C128.883 33.2344 128.586 32.3828 128.055 31.7812C127.523 31.1719 126.805 30.8672 125.898 30.8672ZM138.895 42.2344C137.176 42.2344 135.777 41.6719 134.699 40.5469C133.621 39.4141 133.082 37.9023 133.082 36.0117V35.6133C133.082 34.3555 133.32 33.2344 133.797 32.25C134.281 31.2578 134.953 30.4844 135.812 29.9297C136.68 29.3672 137.617 29.0859 138.625 29.0859C140.273 29.0859 141.555 29.6289 142.469 30.7148C143.383 31.8008 143.84 33.3555 143.84 35.3789V36.2812H135.25C135.281 37.5312 135.645 38.543 136.34 39.3164C137.043 40.082 137.934 40.4648 139.012 40.4648C139.777 40.4648 140.426 40.3086 140.957 39.9961C141.488 39.6836 141.953 39.2695 142.352 38.7539L143.676 39.7852C142.613 41.418 141.02 42.2344 138.895 42.2344ZM138.625 30.8672C137.75 30.8672 137.016 31.1875 136.422 31.8281C135.828 32.4609 135.461 33.3516 135.32 34.5H141.672V34.3359C141.609 33.2344 141.312 32.3828 140.781 31.7812C140.25 31.1719 139.531 30.8672 138.625 30.8672ZM153.742 38.6367C153.742 38.0508 153.52 37.5977 153.074 37.2773C152.637 36.9492 151.867 36.668 150.766 36.4336C149.672 36.1992 148.801 35.918 148.152 35.5898C147.512 35.2617 147.035 34.8711 146.723 34.418C146.418 33.9648 146.266 33.4258 146.266 32.8008C146.266 31.7617 146.703 30.8828 147.578 30.1641C148.461 29.4453 149.586 29.0859 150.953 29.0859C152.391 29.0859 153.555 29.457 154.445 30.1992C155.344 30.9414 155.793 31.8906 155.793 33.0469H153.613C153.613 32.4531 153.359 31.9414 152.852 31.5117C152.352 31.082 151.719 30.8672 150.953 30.8672C150.164 30.8672 149.547 31.0391 149.102 31.3828C148.656 31.7266 148.434 32.1758 148.434 32.7305C148.434 33.2539 148.641 33.6484 149.055 33.9141C149.469 34.1797 150.215 34.4336 151.293 34.6758C152.379 34.918 153.258 35.207 153.93 35.543C154.602 35.8789 155.098 36.2852 155.418 36.7617C155.746 37.2305 155.91 37.8047 155.91 38.4844C155.91 39.6172 155.457 40.5273 154.551 41.2148C153.645 41.8945 152.469 42.2344 151.023 42.2344C150.008 42.2344 149.109 42.0547 148.328 41.6953C147.547 41.3359 146.934 40.8359 146.488 40.1953C146.051 39.5469 145.832 38.8477 145.832 38.0977H148C148.039 38.8242 148.328 39.4023 148.867 39.832C149.414 40.2539 150.133 40.4648 151.023 40.4648C151.844 40.4648 152.5 40.3008 152.992 39.9727C153.492 39.6367 153.742 39.1914 153.742 38.6367Z" fill="#FF6363"/>
</g>
<g id="leafs">
<g id="Group 5">
<path id="Vector" d="M25.2884 31.0501C35.4968 33.6388 41.5955 43.1818 41.5955 43.1818C41.5955 43.1818 31.8349 48.0793 21.6265 45.4906C11.4182 42.9019 4.97363 33.5831 4.97363 33.5831C4.97363 33.5831 15.0801 28.4614 25.2884 31.0501Z" fill="#F9A826"/>
<path id="Vector_2" d="M43.9575 23.047C46.8198 33.182 41.5952 43.1817 41.5952 43.1817C41.5952 43.1817 32.483 37.2309 29.6207 27.0959C26.7584 16.9609 31.6064 6.72034 31.6064 6.72034C31.6064 6.72034 41.0952 12.9119 43.9575 23.047Z" fill="#FF6363"/>
<path id="Vector_3" d="M23.2196 35.0636C30.6843 42.4926 41.5956 43.1817 41.5956 43.1817C41.5956 43.1817 41.1932 31.9332 33.7285 24.5042C26.2638 17.0752 14.9581 16.3325 14.9581 16.3325C14.9581 16.3325 15.7549 27.6346 23.2196 35.0636Z" fill="#EB5F33"/>
</g>
</g>
</g>
</g>
</svg>
