<svg width="160" height="150" viewBox="0 0 160 150" fill="none" xmlns="http://www.w3.org/2000/svg">
<g id="Group 14">
<g id="shadow_earth">
<path id="Vector" d="M80.3627 150C104.311 150 123.725 147.314 123.725 144C123.725 140.686 104.311 138 80.3627 138C56.4141 138 37 140.686 37 144C37 147.314 56.4141 150 80.3627 150Z" fill="#E6E6E6"/>
</g>
<path id="Vector_2" d="M134.067 74C123.054 65.9408 105.804 58.319 86.7418 53.0891C69.3853 48.3271 52.4563 46.028 39.0697 46.6151L39 45.0913C52.5461 44.4974 69.6506 46.8158 87.1624 51.6203C106.403 56.899 123.839 64.6109 135 72.7783L134.067 74Z" fill="#CCCCCC"/>
<path id="Vector_3" d="M133 80.5C133.01 87.7179 131.496 94.8567 128.559 101.45C128.314 102.002 128.059 102.549 127.793 103.091C122.684 113.554 114.181 121.978 103.67 126.988C93.1584 131.998 81.2597 133.299 69.9143 130.678C58.5689 128.057 48.4463 121.67 41.1975 112.557C33.9488 103.444 30.0017 92.1442 30 80.5C30 79.3081 30.0406 78.1254 30.1218 76.9521C30.1604 76.3553 30.2102 75.7622 30.2714 75.1727C31.6371 62.0464 37.9896 49.9453 48.0179 41.3664C58.0463 32.7876 70.9852 28.3857 84.1646 29.0692C97.3441 29.7526 109.758 35.4693 118.845 45.0394C127.933 54.6096 132.999 67.3029 133 80.5V80.5Z" fill="#FF6363"/>
<path id="Vector_4" opacity="0.1" d="M128 101.864C127.756 102.428 127.502 102.987 127.237 103.541C125.739 103.708 124.162 103.83 122.506 103.905C121.135 103.968 119.724 104 118.283 104C105.692 104 90.5398 101.613 75.0602 97.1587C57.8092 92.1932 42.2022 85.2478 31.1129 77.601C30.7353 77.3409 30.3643 77.0802 30 76.8191C30.0384 76.209 30.088 75.6027 30.1489 75C30.7369 75.4303 31.3432 75.8612 31.968 76.2926C42.9268 83.848 58.3772 90.7193 75.4747 95.6407C90.8192 100.058 105.829 102.424 118.275 102.424C119.698 102.424 121.086 102.393 122.437 102.331C124.405 102.239 126.259 102.084 128 101.864Z" fill="black"/>
<path id="Vector_5" d="M118.67 102C106.049 102 90.8593 99.678 75.3432 95.3432C58.0508 90.5123 42.4057 83.7544 31.2896 76.3145C19.9415 68.7193 14.6202 61.2353 16.3057 55.2412C17.9912 49.247 26.4399 45.61 40.0953 45L40.1914 46.5C33.8145 46.7848 28.5903 47.7618 24.7178 49.3401C20.8547 50.9146 18.5229 53.0393 17.7874 55.6552C17.0518 58.271 17.936 61.294 20.4153 64.6405C22.9007 67.995 26.8479 71.4943 32.1474 75.0412C43.1313 82.3927 58.6194 89.0783 75.7585 93.8665C91.1403 98.1636 106.185 100.466 118.662 100.467C120.088 100.467 121.478 100.436 122.833 100.376C129.21 100.091 134.407 99.1464 138.279 97.5681C142.142 95.9936 144.474 93.869 145.21 91.2531C146.53 86.5561 142.539 80.4529 133.97 74.0679L134.892 72.8396C139.301 76.1252 142.565 79.364 144.593 82.4656C146.767 85.7908 147.473 88.8867 146.691 91.6671C145.006 97.6612 136.557 101.298 122.902 101.908C121.528 101.97 120.115 102 118.67 102Z" fill="#CCCCCC"/>
<path id="Vector_6" d="M82.5 20C82.7762 20 83 19.7761 83 19.5C83 19.2239 82.7762 19 82.5 19C82.2239 19 82 19.2239 82 19.5C82 19.7761 82.2239 20 82.5 20Z" fill="#F2F2F2"/>
<path id="Vector_7" d="M4 46C4.55228 46 5 45.5523 5 45C5 44.4477 4.55228 44 4 44C3.44772 44 3 44.4477 3 45C3 45.5523 3.44772 46 4 46Z" fill="#CCCCCC"/>
<path id="Vector_8" d="M2 86C3.10457 86 4 85.1046 4 84C4 82.8954 3.10457 82 2 82C0.895431 82 0 82.8954 0 84C0 85.1046 0.895431 86 2 86Z" fill="#CCCCCC"/>
<path id="Vector_9" d="M122.5 24C123.328 24 124 23.5523 124 23C124 22.4477 123.328 22 122.5 22C121.672 22 121 22.4477 121 23C121 23.5523 121.672 24 122.5 24Z" fill="#CCCCCC"/>
<path id="Vector_10" d="M153 45C153.552 45 154 44.5523 154 44C154 43.4477 153.552 43 153 43C152.448 43 152 43.4477 152 44C152 44.5523 152.448 45 153 45Z" fill="#CCCCCC"/>
<path id="Vector_11" d="M39.5 33C40.3284 33 41 32.3284 41 31.5C41 30.6716 40.3284 30 39.5 30C38.6716 30 38 30.6716 38 31.5C38 32.3284 38.6716 33 39.5 33Z" fill="#CCCCCC"/>
<path id="Vector_12" d="M7 114C7.55229 114 8 113.552 8 113C8 112.448 7.55229 112 7 112C6.44772 112 6 112.448 6 113C6 113.552 6.44772 114 7 114Z" fill="#CCCCCC"/>
<path id="Vector_13" d="M30.5 130C31.3284 130 32 129.552 32 129C32 128.448 31.3284 128 30.5 128C29.6716 128 29 128.448 29 129C29 129.552 29.6716 130 30.5 130Z" fill="#CCCCCC"/>
<path id="Vector_14" d="M66 2.36505H63.6349V0H62.3661V2.36505H60V3.63495H62.3661V6H63.6349V3.63495H66V2.36505Z" fill="#CCCCCC"/>
<path id="Vector_15" d="M124 136.577H122.423V135H121.577V136.577H120V137.423H121.577V139H122.423V137.423H124V136.577Z" fill="#CCCCCC"/>
<path id="Vector_16" d="M160 128.577H158.818V127H158.182V128.577H157V129.423H158.182V131H158.818V129.423H160V128.577Z" fill="#CCCCCC"/>
<path id="Vector_17" opacity="0.1" d="M119.5 90C121.985 90 124 87.9853 124 85.5C124 83.0147 121.985 81 119.5 81C117.015 81 115 83.0147 115 85.5C115 87.9853 117.015 90 119.5 90Z" fill="black"/>
<g id="pin_light_2">
<path id="Vector_18" opacity="0.1" d="M82 83C84.2091 83 86 80.9853 86 78.5C86 76.0147 84.2091 74 82 74C79.7909 74 78 76.0147 78 78.5C78 80.9853 79.7909 83 82 83Z" fill="black"/>
<path id="Vector_19" d="M82 66C85.3137 66 88 63.3137 88 60C88 56.6863 85.3137 54 82 54C78.6863 54 76 56.6863 76 60C76 63.3137 78.6863 66 82 66Z" fill="white"/>
<path id="Vector_20" d="M82 52C79.8783 52 77.8434 52.8451 76.3431 54.3495C74.8428 55.8539 74 57.8942 74 60.0217C74 64.452 82 79 82 79C82 79 90 64.452 90 60.0217C90 57.8942 89.1572 55.8539 87.6569 54.3495C86.1566 52.8451 84.1217 52 82 52ZM82 63.9348C81.2668 63.9348 80.55 63.7168 79.9403 63.3083C79.3307 62.8998 78.8555 62.3192 78.5749 61.64C78.2943 60.9607 78.2209 60.2133 78.3639 59.4922C78.507 58.7711 78.86 58.1087 79.3785 57.5888C79.897 57.0689 80.5576 56.7149 81.2767 56.5714C81.9959 56.428 82.7413 56.5016 83.4187 56.783C84.0962 57.0643 84.6752 57.5408 85.0825 58.1521C85.4899 58.7634 85.7073 59.4822 85.7073 60.2174C85.7073 60.7056 85.6115 61.189 85.4251 61.64C85.2388 62.091 84.9658 62.5008 84.6215 62.846C84.2772 63.1912 83.8685 63.465 83.4187 63.6518C82.9689 63.8386 82.4869 63.9348 82 63.9348V63.9348Z" fill="#CCCCCC"/>
</g>
<g id="pin_light_1">
<path id="Vector_21" opacity="0.1" d="M51 107C53.2091 107 55 105.209 55 103C55 100.791 53.2091 99 51 99C48.7909 99 47 100.791 47 103C47 105.209 48.7909 107 51 107Z" fill="black"/>
<path id="Vector_22" d="M50.5 90C53.5376 90 56 87.5376 56 84.5C56 81.4624 53.5376 79 50.5 79C47.4624 79 45 81.4624 45 84.5C45 87.5376 47.4624 90 50.5 90Z" fill="white"/>
<path id="Vector_23" d="M51 76C48.8783 76 46.8434 76.8451 45.3432 78.3495C43.8429 79.8539 43 81.8942 43 84.0217C43 88.452 51 103 51 103C51 103 59 88.452 59 84.0217C59 82.9683 58.7931 81.9252 58.391 80.9519C57.989 79.9787 57.3997 79.0944 56.6569 78.3495C55.914 77.6046 55.0321 77.0137 54.0615 76.6106C53.0909 76.2075 52.0506 76 51 76ZM51 87.9348C50.2668 87.9348 49.55 87.7168 48.9403 87.3083C48.3306 86.8998 47.8555 86.3192 47.5749 85.64C47.2943 84.9607 47.2209 84.2133 47.3639 83.4921C47.507 82.771 47.8601 82.1087 48.3785 81.5888C48.897 81.0689 49.5576 80.7148 50.2767 80.5714C50.9959 80.428 51.7413 80.5016 52.4188 80.783C53.0962 81.0643 53.6752 81.5408 54.0826 82.1521C54.4899 82.7634 54.7074 83.4822 54.7074 84.2174C54.7074 84.7056 54.6114 85.189 54.4251 85.64C54.2388 86.091 53.9657 86.5008 53.6215 86.846C53.2772 87.1912 52.8685 87.465 52.4187 87.6518C51.9689 87.8386 51.4869 87.9348 51 87.9348V87.9348Z" fill="#CCCCCC"/>
</g>
<g id="pin_light_3">
<g id="Group 15">
<path id="Vector_24" d="M119.5 73C122.538 73 125 70.3137 125 67C125 63.6863 122.538 61 119.5 61C116.462 61 114 63.6863 114 67C114 70.3137 116.462 73 119.5 73Z" fill="white"/>
<path id="Vector_25" d="M119.5 59C118.515 59 117.54 59.2075 116.63 59.6106C115.72 60.0138 114.893 60.6046 114.197 61.3495C113.5 62.0944 112.948 62.9787 112.571 63.952C112.194 64.9252 112 65.9683 112 67.0217C112 71.452 119.5 86 119.5 86C119.5 86 127 71.452 127 67.0217C127 65.9683 126.806 64.9252 126.429 63.952C126.052 62.9787 125.5 62.0944 124.803 61.3495C124.107 60.6046 123.28 60.0138 122.37 59.6106C121.46 59.2075 120.485 59 119.5 59ZM119.5 70.9348C118.813 70.9348 118.141 70.7168 117.569 70.3083C116.998 69.8998 116.552 69.3192 116.289 68.64C116.026 67.9607 115.957 67.2133 116.091 66.4921C116.225 65.771 116.556 65.1087 117.042 64.5888C117.528 64.0689 118.148 63.7148 118.822 63.5714C119.496 63.428 120.195 63.5016 120.83 63.783C121.465 64.0643 122.008 64.5408 122.39 65.1521C122.772 65.7634 122.976 66.4822 122.976 67.2174C122.976 67.7056 122.886 68.189 122.711 68.64C122.536 69.091 122.28 69.5008 121.958 69.846C121.635 70.1912 121.252 70.465 120.83 70.6518C120.408 70.8386 119.956 70.9348 119.5 70.9348V70.9348Z" fill="#CCCCCC"/>
</g>
</g>
<g id="pin_light_4">
<path id="Vector_26" opacity="0.1" d="M82 45C84.2091 45 86 42.9853 86 40.5C86 38.0147 84.2091 36 82 36C79.7909 36 78 38.0147 78 40.5C78 42.9853 79.7909 45 82 45Z" fill="black"/>
<path id="Vector_27" d="M82 28C85.3137 28 88 25.3137 88 22C88 18.6863 85.3137 16 82 16C78.6863 16 76 18.6863 76 22C76 25.3137 78.6863 28 82 28Z" fill="white"/>
<path id="Vector_28" d="M82 14C79.8783 14 77.8434 14.8451 76.3431 16.3495C74.8428 17.8539 74 19.8942 74 22.0217C74 26.452 82 41 82 41C82 41 90 26.452 90 22.0217C90 19.8942 89.1572 17.8539 87.6569 16.3495C86.1566 14.8451 84.1217 14 82 14V14ZM82 25.9348C81.2668 25.9348 80.55 25.7168 79.9403 25.3083C79.3307 24.8998 78.8555 24.3192 78.5749 23.64C78.2943 22.9607 78.2209 22.2133 78.3639 21.4922C78.507 20.771 78.86 20.1087 79.3785 19.5888C79.897 19.0689 80.5576 18.7148 81.2767 18.5714C81.9959 18.428 82.7413 18.5016 83.4187 18.783C84.0962 19.0643 84.6752 19.5408 85.0825 20.1521C85.4899 20.7634 85.7073 21.4822 85.7073 22.2174C85.7073 22.7056 85.6115 23.189 85.4251 23.64C85.2388 24.091 84.9658 24.5008 84.6215 24.846C84.2772 25.1912 83.8685 25.465 83.4187 25.6518C82.9689 25.8386 82.4869 25.9348 82 25.9348V25.9348Z" fill="#CCCCCC"/>
</g>
<g id="pin_dark-1">
<path id="Vector_29" opacity="0.1" d="M96.5 120C98.9853 120 101 118.209 101 116C101 113.791 98.9853 112 96.5 112C94.0147 112 92 113.791 92 116C92 118.209 94.0147 120 96.5 120Z" fill="black"/>
<path id="Vector_30" d="M96.5 103C99.5376 103 102 100.538 102 97.5C102 94.4624 99.5376 92 96.5 92C93.4624 92 91 94.4624 91 97.5C91 100.538 93.4624 103 96.5 103Z" fill="white"/>
<path id="Vector_31" d="M96.5 89C94.2456 89 92.0836 89.8764 90.4896 91.4365C88.8955 92.9966 88 95.1125 88 97.3188C88 101.913 96.5 117 96.5 117C96.5 117 105 101.913 105 97.3188C105 96.2264 104.78 95.1446 104.353 94.1353C103.926 93.1261 103.3 92.209 102.51 91.4365C101.721 90.664 100.784 90.0513 99.7528 89.6332C98.7215 89.2152 97.6162 89 96.5 89V89ZM96.5 101.377C95.7209 101.377 94.9594 101.151 94.3116 100.727C93.6638 100.304 93.1589 99.7014 92.8608 98.997C92.5627 98.2926 92.4847 97.5175 92.6367 96.7696C92.7886 96.0218 93.1638 95.3349 93.7147 94.7958C94.2656 94.2566 94.9674 93.8895 95.7315 93.7407C96.4956 93.592 97.2876 93.6683 98.0074 93.9601C98.7272 94.2519 99.3424 94.746 99.7752 95.38C100.208 96.0139 100.439 96.7593 100.439 97.5217C100.439 98.028 100.337 98.5293 100.139 98.997C99.9412 99.4647 99.6511 99.8897 99.2853 100.248C98.9196 100.606 98.4853 100.89 98.0074 101.083C97.5295 101.277 97.0173 101.377 96.5 101.377V101.377Z" fill="#3F3D56"/>
</g>
<g id="pin_dark-2">
<path id="Vector_32" opacity="0.1" d="M49 77C51.2091 77 53 74.9853 53 72.5C53 70.0147 51.2091 68 49 68C46.7909 68 45 70.0147 45 72.5C45 74.9853 46.7909 77 49 77Z" fill="black"/>
<path id="Vector_33" d="M48.5 59C51.5376 59 54 56.5376 54 53.5C54 50.4624 51.5376 48 48.5 48C45.4624 48 43 50.4624 43 53.5C43 56.5376 45.4624 59 48.5 59Z" fill="white"/>
<path id="Vector_34" d="M49 45C46.8783 45 44.8434 45.8764 43.3431 47.4365C41.8428 48.9966 41 51.1125 41 53.3188C41 57.9132 49 73 49 73C49 73 57 57.9132 57 53.3188C57 51.1125 56.1572 48.9966 54.6569 47.4365C53.1566 45.8764 51.1217 45 49 45ZM49 57.3768C48.2668 57.3768 47.55 57.1507 46.9403 56.7271C46.3307 56.3035 45.8555 55.7014 45.5749 54.997C45.2943 54.2926 45.2209 53.5175 45.3639 52.7696C45.507 52.0218 45.86 51.3349 46.3785 50.7958C46.897 50.2566 47.5576 49.8895 48.2767 49.7407C48.9959 49.592 49.7413 49.6683 50.4187 49.9601C51.0962 50.2519 51.6752 50.746 52.0825 51.38C52.4899 52.0139 52.7073 52.7593 52.7073 53.5217C52.7073 54.028 52.6115 54.5293 52.4251 54.997C52.2388 55.4647 51.9658 55.8897 51.6215 56.2477C51.2772 56.6057 50.8685 56.8896 50.4187 57.0834C49.9689 57.2771 49.4869 57.3768 49 57.3768Z" fill="#3F3D56"/>
</g>
<g id="pin_dark-3">
<path id="Vector_35" opacity="0.1" d="M105 60C107.209 60 109 57.9853 109 55.5C109 53.0147 107.209 51 105 51C102.791 51 101 53.0147 101 55.5C101 57.9853 102.791 60 105 60Z" fill="black"/>
<path id="Vector_36" d="M105.5 43C108.538 43 111 40.5376 111 37.5C111 34.4624 108.538 32 105.5 32C102.462 32 100 34.4624 100 37.5C100 40.5376 102.462 43 105.5 43Z" fill="white"/>
<path id="Vector_37" d="M105 29C102.878 29 100.843 29.8451 99.3431 31.3495C97.8428 32.8539 97 34.8942 97 37.0217C97 41.452 105 56 105 56C105 56 113 41.452 113 37.0217C113 34.8942 112.157 32.8539 110.657 31.3495C109.157 29.8451 107.122 29 105 29V29ZM105 40.9348C104.267 40.9348 103.55 40.7168 102.94 40.3083C102.331 39.8998 101.855 39.3192 101.575 38.64C101.294 37.9607 101.221 37.2133 101.364 36.4922C101.507 35.7711 101.86 35.1087 102.379 34.5888C102.897 34.0689 103.558 33.7148 104.277 33.5714C104.996 33.428 105.741 33.5016 106.419 33.783C107.096 34.0643 107.675 34.5408 108.083 35.1521C108.49 35.7634 108.707 36.4822 108.707 37.2174C108.707 38.2033 108.317 39.1488 107.621 39.846C106.926 40.5431 105.983 40.9348 105 40.9348V40.9348V40.9348Z" fill="#3F3D56"/>
</g>
</g>
</svg>
