<svg width="163" height="65" viewBox="0 0 163 65" fill="none" xmlns="http://www.w3.org/2000/svg">
<g id="Logo" filter="url(#filter0_d)">
<g id="Group 19">
<g id="logo_txt">
<path id="FreeBees" d="M69.7891 35.0273H63.0391V42H59.5234V24.9375H70.6328V27.7852H63.0391V32.1914H69.7891V35.0273ZM79.2695 32.4961C78.8086 32.4336 78.4023 32.4023 78.0508 32.4023C76.7695 32.4023 75.9297 32.8359 75.5312 33.7031V42H72.1445V29.3203H75.3438L75.4375 30.832C76.1172 29.668 77.0586 29.0859 78.2617 29.0859C78.6367 29.0859 78.9883 29.1367 79.3164 29.2383L79.2695 32.4961ZM86.5117 42.2344C84.6523 42.2344 83.1367 41.6641 81.9648 40.5234C80.8008 39.3828 80.2188 37.8633 80.2188 35.9648V35.6367C80.2188 34.3633 80.4648 33.2266 80.957 32.2266C81.4492 31.2188 82.1445 30.4453 83.043 29.9062C83.9492 29.3594 84.9805 29.0859 86.1367 29.0859C87.8711 29.0859 89.2344 29.6328 90.2266 30.7266C91.2266 31.8203 91.7266 33.3711 91.7266 35.3789V36.7617H83.6523C83.7617 37.5898 84.0898 38.2539 84.6367 38.7539C85.1914 39.2539 85.8906 39.5039 86.7344 39.5039C88.0391 39.5039 89.0586 39.0312 89.793 38.0859L91.457 39.9492C90.9492 40.668 90.2617 41.2305 89.3945 41.6367C88.5273 42.0352 87.5664 42.2344 86.5117 42.2344ZM86.125 31.8281C85.4531 31.8281 84.9062 32.0547 84.4844 32.5078C84.0703 32.9609 83.8047 33.6094 83.6875 34.4531H88.3984V34.1836C88.3828 33.4336 88.1797 32.8555 87.7891 32.4492C87.3984 32.0352 86.8438 31.8281 86.125 31.8281ZM99.4961 42.2344C97.6367 42.2344 96.1211 41.6641 94.9492 40.5234C93.7852 39.3828 93.2031 37.8633 93.2031 35.9648V35.6367C93.2031 34.3633 93.4492 33.2266 93.9414 32.2266C94.4336 31.2188 95.1289 30.4453 96.0273 29.9062C96.9336 29.3594 97.9648 29.0859 99.1211 29.0859C100.855 29.0859 102.219 29.6328 103.211 30.7266C104.211 31.8203 104.711 33.3711 104.711 35.3789V36.7617H96.6367C96.7461 37.5898 97.0742 38.2539 97.6211 38.7539C98.1758 39.2539 98.875 39.5039 99.7188 39.5039C101.023 39.5039 102.043 39.0312 102.777 38.0859L104.441 39.9492C103.934 40.668 103.246 41.2305 102.379 41.6367C101.512 42.0352 100.551 42.2344 99.4961 42.2344ZM99.1094 31.8281C98.4375 31.8281 97.8906 32.0547 97.4688 32.5078C97.0547 32.9609 96.7891 33.6094 96.6719 34.4531H101.383V34.1836C101.367 33.4336 101.164 32.8555 100.773 32.4492C100.383 32.0352 99.8281 31.8281 99.1094 31.8281ZM106.867 42V24.9375H112.844C114.914 24.9375 116.484 25.3359 117.555 26.1328C118.625 26.9219 119.16 28.082 119.16 29.6133C119.16 30.4492 118.945 31.1875 118.516 31.8281C118.086 32.4609 117.488 32.9258 116.723 33.2227C117.598 33.4414 118.285 33.8828 118.785 34.5469C119.293 35.2109 119.547 36.0234 119.547 36.9844C119.547 38.625 119.023 39.8672 117.977 40.7109C116.93 41.5547 115.438 41.9844 113.5 42H106.867ZM110.383 34.5703V39.1758H113.395C114.223 39.1758 114.867 38.9805 115.328 38.5898C115.797 38.1914 116.031 37.6445 116.031 36.9492C116.031 35.3867 115.223 34.5938 113.605 34.5703H110.383ZM110.383 32.0859H112.984C114.758 32.0547 115.645 31.3477 115.645 29.9648C115.645 29.1914 115.418 28.6367 114.965 28.3008C114.52 27.957 113.812 27.7852 112.844 27.7852H110.383V32.0859ZM127.809 42.2344C125.949 42.2344 124.434 41.6641 123.262 40.5234C122.098 39.3828 121.516 37.8633 121.516 35.9648V35.6367C121.516 34.3633 121.762 33.2266 122.254 32.2266C122.746 31.2188 123.441 30.4453 124.34 29.9062C125.246 29.3594 126.277 29.0859 127.434 29.0859C129.168 29.0859 130.531 29.6328 131.523 30.7266C132.523 31.8203 133.023 33.3711 133.023 35.3789V36.7617H124.949C125.059 37.5898 125.387 38.2539 125.934 38.7539C126.488 39.2539 127.188 39.5039 128.031 39.5039C129.336 39.5039 130.355 39.0312 131.09 38.0859L132.754 39.9492C132.246 40.668 131.559 41.2305 130.691 41.6367C129.824 42.0352 128.863 42.2344 127.809 42.2344ZM127.422 31.8281C126.75 31.8281 126.203 32.0547 125.781 32.5078C125.367 32.9609 125.102 33.6094 124.984 34.4531H129.695V34.1836C129.68 33.4336 129.477 32.8555 129.086 32.4492C128.695 32.0352 128.141 31.8281 127.422 31.8281ZM140.793 42.2344C138.934 42.2344 137.418 41.6641 136.246 40.5234C135.082 39.3828 134.5 37.8633 134.5 35.9648V35.6367C134.5 34.3633 134.746 33.2266 135.238 32.2266C135.73 31.2188 136.426 30.4453 137.324 29.9062C138.23 29.3594 139.262 29.0859 140.418 29.0859C142.152 29.0859 143.516 29.6328 144.508 30.7266C145.508 31.8203 146.008 33.3711 146.008 35.3789V36.7617H137.934C138.043 37.5898 138.371 38.2539 138.918 38.7539C139.473 39.2539 140.172 39.5039 141.016 39.5039C142.32 39.5039 143.34 39.0312 144.074 38.0859L145.738 39.9492C145.23 40.668 144.543 41.2305 143.676 41.6367C142.809 42.0352 141.848 42.2344 140.793 42.2344ZM140.406 31.8281C139.734 31.8281 139.188 32.0547 138.766 32.5078C138.352 32.9609 138.086 33.6094 137.969 34.4531H142.68V34.1836C142.664 33.4336 142.461 32.8555 142.07 32.4492C141.68 32.0352 141.125 31.8281 140.406 31.8281ZM154.809 38.4961C154.809 38.082 154.602 37.7578 154.188 37.5234C153.781 37.2812 153.125 37.0664 152.219 36.8789C149.203 36.2461 147.695 34.9648 147.695 33.0352C147.695 31.9102 148.16 30.9727 149.09 30.2227C150.027 29.4648 151.25 29.0859 152.758 29.0859C154.367 29.0859 155.652 29.4648 156.613 30.2227C157.582 30.9805 158.066 31.9648 158.066 33.1758H154.68C154.68 32.6914 154.523 32.293 154.211 31.9805C153.898 31.6602 153.41 31.5 152.746 31.5C152.176 31.5 151.734 31.6289 151.422 31.8867C151.109 32.1445 150.953 32.4727 150.953 32.8711C150.953 33.2461 151.129 33.5508 151.48 33.7852C151.84 34.0117 152.441 34.2109 153.285 34.3828C154.129 34.5469 154.84 34.7344 155.418 34.9453C157.207 35.6016 158.102 36.7383 158.102 38.3555C158.102 39.5117 157.605 40.4492 156.613 41.168C155.621 41.8789 154.34 42.2344 152.77 42.2344C151.707 42.2344 150.762 42.0469 149.934 41.6719C149.113 41.2891 148.469 40.7695 148 40.1133C147.531 39.4492 147.297 38.7344 147.297 37.9688H150.508C150.539 38.5703 150.762 39.0312 151.176 39.3516C151.59 39.6719 152.145 39.832 152.84 39.832C153.488 39.832 153.977 39.7109 154.305 39.4688C154.641 39.2188 154.809 38.8945 154.809 38.4961Z" fill="#EB5F33"/>
</g>
<g id="leafs">
<g id="Group 5">
<path id="Vector" d="M25.2884 31.0501C35.4968 33.6388 41.5955 43.1818 41.5955 43.1818C41.5955 43.1818 31.8349 48.0793 21.6265 45.4906C11.4182 42.9019 4.97363 33.5831 4.97363 33.5831C4.97363 33.5831 15.0801 28.4614 25.2884 31.0501Z" fill="#F9A826"/>
<path id="Vector_2" d="M43.9575 23.047C46.8198 33.182 41.5952 43.1817 41.5952 43.1817C41.5952 43.1817 32.483 37.2309 29.6207 27.0959C26.7584 16.9609 31.6064 6.72034 31.6064 6.72034C31.6064 6.72034 41.0952 12.9119 43.9575 23.047Z" fill="#FF6363"/>
<path id="Vector_3" d="M23.2196 35.0636C30.6843 42.4926 41.5956 43.1817 41.5956 43.1817C41.5956 43.1817 41.1932 31.9332 33.7285 24.5042C26.2638 17.0752 14.9581 16.3325 14.9581 16.3325C14.9581 16.3325 15.7549 27.6346 23.2196 35.0636Z" fill="#EB5F33"/>
</g>
</g>
</g>
</g>
<defs>
<filter id="filter0_d" x="0.973633" y="6.72034" width="161.128" height="57.9195" filterUnits="userSpaceOnUse" color-interpolation-filters="sRGB">
<feFlood flood-opacity="0" result="BackgroundImageFix"/>
<feColorMatrix in="SourceAlpha" type="matrix" values="0 0 0 0 0 0 0 0 0 0 0 0 0 0 0 0 0 0 127 0"/>
<feOffset dy="4"/>
<feGaussianBlur stdDeviation="2"/>
<feColorMatrix type="matrix" values="0 0 0 0 0 0 0 0 0 0 0 0 0 0 0 0 0 0 0.15 0"/>
<feBlend mode="normal" in2="BackgroundImageFix" result="effect1_dropShadow"/>
<feBlend mode="normal" in="SourceGraphic" in2="effect1_dropShadow" result="shape"/>
</filter>
</defs>
</svg>
